<svg width="15" height="19" viewBox="0 0 15 19" fill="none" xmlns="http://www.w3.org/2000/svg">
<path fill-rule="evenodd" clip-rule="evenodd" d="M3.93754 4.35413C3.93754 2.38661 5.53252 0.791626 7.50004 0.791626C9.46756 0.791626 11.0625 2.38661 11.0625 4.35413V9.49996C11.0625 11.4675 9.46756 13.0625 7.50004 13.0625C5.53252 13.0625 3.93754 11.4675 3.93754 9.49996V4.35413ZM7.50004 2.37496C6.40698 2.37496 5.52087 3.26106 5.52087 4.35413V9.49996C5.52087 10.593 6.40697 11.4791 7.50004 11.4791C8.59311 11.4791 9.47921 10.593 9.47921 9.49996V4.35413C9.47921 3.26106 8.59311 2.37496 7.50004 2.37496ZM1.56254 8.31246C1.99977 8.31246 2.35421 8.6669 2.35421 9.10413C2.35421 11.9461 4.65806 14.25 7.50004 14.25C10.342 14.25 12.6459 11.9461 12.6459 9.10413C12.6459 8.6669 13.0003 8.31246 13.4375 8.31246C13.8748 8.31246 14.2292 8.6669 14.2292 9.10413C14.2292 12.5527 11.6351 15.3954 8.29171 15.7872V17.4166C8.29171 17.8538 7.93727 18.2083 7.50004 18.2083C7.06282 18.2083 6.70837 17.8538 6.70837 17.4166V15.7872C3.36502 15.3954 0.770874 12.5527 0.770874 9.10413C0.770874 8.6669 1.12532 8.31246 1.56254 8.31246Z" fill="#E94057"/>
</svg>
