<svg width="19" height="17" viewBox="0 0 19 17" fill="none" xmlns="http://www.w3.org/2000/svg">
<path fill-rule="evenodd" clip-rule="evenodd" d="M9.49996 1.77083C7.31383 1.77083 5.54163 3.54304 5.54163 5.72917C5.54163 5.74789 5.54176 5.76657 5.54202 5.78523C5.80045 5.74828 6.06464 5.72917 6.33329 5.72917C7.51076 5.72917 8.60246 6.09639 9.5001 6.72256C10.3977 6.09651 11.4893 5.72936 12.6666 5.72936C12.9353 5.72936 13.1995 5.74848 13.4579 5.78543C13.4582 5.76671 13.4583 5.74795 13.4583 5.72917C13.4583 3.54304 11.6861 1.77083 9.49996 1.77083ZM15.0174 6.2512C15.0334 6.07935 15.0416 5.90522 15.0416 5.72917C15.0416 2.66859 12.5605 0.1875 9.49996 0.1875C6.43938 0.1875 3.95829 2.66859 3.95829 5.72917C3.95829 5.90515 3.9665 6.07922 3.98254 6.25101C2.09723 7.13542 0.791626 9.05066 0.791626 11.2708C0.791626 14.3314 3.27271 16.8125 6.33329 16.8125C7.51064 16.8125 8.60223 16.4454 9.49982 15.8193C10.3975 16.4455 11.4892 16.8127 12.6666 16.8127C15.7272 16.8127 18.2083 14.3316 18.2083 11.271C18.2083 9.05085 16.9027 7.1356 15.0174 6.2512ZM13.1176 7.33811C12.9696 7.32132 12.8191 7.3127 12.6666 7.3127C11.9456 7.3127 11.2696 7.50548 10.6874 7.84231C11.0034 8.24313 11.2653 8.68864 11.462 9.1678C12.1905 8.75123 12.7739 8.10981 13.1176 7.33811ZM11.8507 10.749C13.1038 10.1611 14.1008 9.11788 14.6286 7.83236C15.8212 8.51429 16.625 9.7988 16.625 11.271C16.625 13.4572 14.8528 15.2294 12.6666 15.2294C11.9455 15.2294 11.2694 15.0365 10.6871 14.6996C11.431 13.7563 11.875 12.5654 11.875 11.2708C11.875 11.0948 11.8668 10.9208 11.8507 10.749ZM9.95104 9.66208C9.82936 9.38884 9.67762 9.13193 9.50004 8.89555C9.32243 9.13193 9.17067 9.38884 9.04896 9.66209C9.19697 9.67888 9.34746 9.6875 9.49996 9.6875C9.65249 9.6875 9.80301 9.67887 9.95104 9.66208ZM8.70868 11.2148C8.96712 11.2517 9.23131 11.2708 9.49996 11.2708C9.76861 11.2708 10.0328 11.2517 10.2912 11.2148C10.2915 11.2334 10.2916 11.2521 10.2916 11.2708C10.2916 12.1622 9.99703 12.9847 9.49989 13.6463C9.00284 12.9847 8.70829 12.1623 8.70829 11.271C8.70829 11.2522 8.70842 11.2335 8.70868 11.2148ZM7.538 9.16784C7.73473 8.68863 7.99667 8.24308 8.31278 7.84224C7.73049 7.50533 7.05441 7.3125 6.33329 7.3125C6.18076 7.3125 6.03025 7.32113 5.88221 7.33792C6.22594 8.10973 6.80939 8.75123 7.538 9.16784ZM4.37127 7.8322C4.89899 9.1178 5.89604 10.1611 7.14923 10.749C7.13317 10.9209 7.12496 11.095 7.12496 11.271C7.12496 12.5655 7.56878 13.7563 8.31256 14.6996C7.73032 15.0364 7.05432 15.2292 6.33329 15.2292C4.14717 15.2292 2.37496 13.457 2.37496 11.2708C2.37496 9.79863 3.17867 8.51414 4.37127 7.8322Z" fill="#E94057"/>
</svg>
